<?xml version="1.0" encoding="utf-8"?>
<!-- Generator: Adobe Illustrator 17.0.0, SVG Export Plug-In . SVG Version: 6.00 Build 0)  -->
<!DOCTYPE svg PUBLIC "-//W3C//DTD SVG 1.1//EN" "http://www.w3.org/Graphics/SVG/1.1/DTD/svg11.dtd">
<svg version="1.1" id="Calque_1" xmlns="http://www.w3.org/2000/svg" xmlns:xlink="http://www.w3.org/1999/xlink" x="0px" y="0px"
	 width="32px" height="32px" viewBox="0 0 32 32" enable-background="new 0 0 32 32" xml:space="preserve">
<path fill="#FFFFFF" d="M15.999,0.002c-8.837,0-16,7.164-16,16s7.163,16,16,16s16-7.164,16-16S24.836,0.002,15.999,0.002z
	 M26.498,7.746c1.72,2.184,2.773,4.912,2.856,7.881c-3.59-0.629-6.686-0.648-9.361-0.224c-0.339-0.778-0.688-1.534-1.046-2.266
	C21.816,11.957,24.389,10.236,26.498,7.746z M24.657,5.834c-1.884,2.287-4.249,3.861-6.925,4.932
	c-1.713-3.174-3.475-5.819-4.883-7.75c1.011-0.247,2.064-0.379,3.149-0.379C19.301,2.636,22.323,3.843,24.657,5.834z M10.254,3.937
	c1.361,1.817,3.172,4.449,4.943,7.676c-3.754,1.031-7.953,1.309-12.203,1.321C3.932,8.958,6.646,5.662,10.254,3.937z M2.635,16.001
	l0.011-0.432h0.072c4.762,0,9.49-0.312,13.729-1.561c0.316,0.643,0.627,1.303,0.931,1.982c-5.577,1.635-9.054,5.305-11.437,8.797
	C3.885,22.438,2.635,19.363,2.635,16.001z M7.889,26.613c2.256-3.398,5.4-6.76,10.516-8.172c1.195,3.062,2.17,6.404,2.686,9.914
	c-1.57,0.652-3.289,1.012-5.091,1.012C12.951,29.367,10.139,28.34,7.889,26.613z M23.549,27.023
	c-0.547-3.207-1.443-6.266-2.522-9.102c2.338-0.297,5.026-0.225,8.142,0.348C28.546,21.891,26.464,25.02,23.549,27.023z"/>
</svg>
