<?xml version="1.0" encoding="utf-8"?>
<!-- Generator: Adobe Illustrator 17.0.0, SVG Export Plug-In . SVG Version: 6.00 Build 0)  -->
<!DOCTYPE svg PUBLIC "-//W3C//DTD SVG 1.1//EN" "http://www.w3.org/Graphics/SVG/1.1/DTD/svg11.dtd">
<svg version="1.1" id="Calque_1" xmlns:sketch="http://www.bohemiancoding.com/sketch/ns"
	 xmlns="http://www.w3.org/2000/svg" xmlns:xlink="http://www.w3.org/1999/xlink" x="0px" y="0px" width="32px" height="32px"
	 viewBox="0 0 32 32" enable-background="new 0 0 32 32" xml:space="preserve">
<title></title>
<desc></desc>
<g>
	<path fill="#FFFFFF" d="M26.996,8H6.004C4.897,8,4,8.895,4,9.994v12.012C4,23.107,4.89,24,6.004,24h20.993
		C28.103,24,29,23.105,29,22.006V9.994C29,8.893,28.11,8,26.996,8z M25.923,21.077l-0.808,0.808l-5.99-5.135L16.5,19l-2.625-2.25
		l-5.99,5.135l-0.808-0.808L13,16l-5.923-5.077l0.808-0.808L16.5,17.5l8.615-7.385l0.808,0.808L20,16L25.923,21.077z"/>
</g>
</svg>
