<?xml version="1.0" encoding="utf-8"?>
<!-- Generator: Adobe Illustrator 17.0.0, SVG Export Plug-In . SVG Version: 6.00 Build 0)  -->
<!DOCTYPE svg PUBLIC "-//W3C//DTD SVG 1.1//EN" "http://www.w3.org/Graphics/SVG/1.1/DTD/svg11.dtd">
<svg version="1.1" id="Calque_1" xmlns="http://www.w3.org/2000/svg" xmlns:xlink="http://www.w3.org/1999/xlink" x="0px" y="0px"
	 width="292.066px" height="435.248px" viewBox="171.276 0 292.066 435.248" enable-background="new 171.276 0 292.066 435.248"
	 xml:space="preserve">
<g>
	<g>
		<path fill="#FFFFFF" d="M263.419,302.371c14.086,13.289,36.062,37.805,32.04,66.25c0,0-33.022,19.603-72.339,0.121
			c-1.067-0.528-2.136-1.07-3.216-1.657c0,0,3.719,9.067,12.588,19.973c16.283,25.48,43.058,43.66,74.893,47.464
			c56.981,6.808,108.561-34.997,115.206-93.374c2.974-26.129-4.195-50.721-16.814-71.405c-11.764-19.281-35.053-37.017-42.685-43.46
			c-1.645-1.389-3.196-2.75-4.622-4.139c-13.342-12.135-23.754-29.484-23.754-49.536c0-37.378,29.576-67.678,66.06-67.678
			c29.044,0,53.691,19.211,62.544,45.899C464.588,74.874,409.431,8.843,334.225-0.143C254.122-9.714,181.613,49.054,172.271,131.12
			c-3.646,32.032,2.884,62.868,16.95,89.142c11.644,24.881,27.398,42.296,40.831,54.339c4.041,3.623,7.842,6.733,11.276,9.436
			c4.491-4.906,10.261-7.775,16.16-7.816c0.195-0.001,0.349,0.055,0.473,0.143c0.13,0.079,0.244,0.199,0.324,0.381
			c2.591,5.886,2.373,13.721-1.04,20.462L263.419,302.371"/>
		<path fill="#FFFFFF" d="M264.533,344.185c0.679-4.626-1.263-9.444-5.347-12.147c-4.085-2.703-9.171-2.534-13.006,0.003
			c-0.679,4.626,1.263,9.444,5.347,12.147S260.697,346.722,264.533,344.185z"/>
	</g>
</g>
</svg>
